<?xml version="1.0"?>
<svg xmlns="http://www.w3.org/2000/svg" xmlns:xlink="http://www.w3.org/1999/xlink" version="1.1" id="Capa_1" x="0px" y="0px" viewBox="0 0 512 512" style="enable-background:new 0 0 512 512;" xml:space="preserve" width="512px" height="512px" class=""><g><g>
	<g>
		<path d="M389.992,281.516c-5.77-10.98-19.4-15.22-30.384-9.452c-14.371,7.552-24.594,6.02-35.912-0.882    c-9.688-6.502-15.533-15.938-15.544-15.955c-1.241-2.093-2.805-3.94-4.604-5.498c18.132-13.096,31.713-31.99,38.033-54.221    c0.764-0.373,1.526-0.75,2.274-1.138c4.311-2.23,7.29-6.431,7.971-11.23c3.75-26.602-2.567-56.064-18.83-81.89    c-19.922-31.601-52.975-54.391-90.23-54.391h-0.02c-17.38,0-34.307,5.041-49.53,14.32c-5.073,2.961-6.506,7.651-7.38,11.87    c-0.003,0.016-0.21,0.964-0.21,0.98c-0.011,0.02-0.011,0.05-0.021,0.069c0,1-0.549,2.005,0.32,4.26c0,0,0.01,0.011,0.01,0.021    l0.03,0.09l0.01,0.01c0.116,0.292,0.247,0.575,0.45,0.94c0.01,0.01,0.02,0.03,0.03,0.04c0.761,1.324,2.081,2.399,2.22,2.399    c0.01,0.011,0.02,0.021,0.04,0.03c0.013,0.013,0.03,0.03,0.05,0.03c0.035,0.033,0.071,0.054,0.09,0.06l0.021-0.04l-0.011,0.051    l0.021,0.01c0.207,0.207,1.388,0.803,2.57,1.04c0.009,0.009,0.077,0.018,0.09,0.02c3.362,0.651,7.2-1.083,8.56-5.16    c0-0.01,0-0.01,0-0.01c0.21-0.657,0.683-3.299,0.94-3.92c13.785-8.375,27.985-12.11,41.7-12.11    c32.269,0.031,60.586,20.414,77.56,47.391c13.317,21.114,20.149,47.065,16.67,71.8c-52.273,26.783-114.123,0.92-133.236-50.592    c-2.022-5.452-9.244-6.613-12.884-2.088c-13.795,17.161-34.782,19.82-40.52,18.529c2.85-12.979,6.47-23.89,11.069-33.359    c3.811-7.83,8.311-14.76,13.771-21.15c4.146-4.881,0.68-12.37-5.7-12.37c-2.2,0-4.28,0.96-5.71,2.63    c-4.446,5.203-8.333,10.715-11.779,16.68c-10.984-8.958-17.58-22.462-17.571-36.829c0-26.217,21.206-47.5,47.5-47.5    c14.21,0,27.58,6.31,36.649,17.3c2.672,3.231,7.401,3.628,10.561,1.01c3.189-2.63,3.64-7.37,1.01-10.56    C218.225,8.29,200.655,0,181.915,0c-34.662,0-62.5,28.121-62.5,62.5c0,19.69,9.234,38.506,25.778,50.529    c-5.458,12.86-9.868,29.946-9.868,33.871c0,4.542,2.137,8.942,5.584,11.697c-1.213,12.792-0.071,25.586,3.357,37.305    c2.892,9.879,7.366,19.386,13.321,28.288c6.611,9.771,14.839,18.233,24.216,25.104c-23.975,5.974-45.092,19.123-51.859,42.892    c-2.808,9.861-6.239,33.896,17.94,54.111c-1.281,2.856-1.955,5.979-1.955,9.204c0,6.011,2.341,11.661,6.59,15.91    c4.25,4.249,9.9,6.59,15.91,6.59c1.401,0,2.779-0.14,4.128-0.389l-9.499,36.176c-1.785,6.799-0.347,13.891,3.946,19.457    c2.119,2.746,4.774,4.912,7.764,6.404l-8.4,31.988c-11.241,4.541-18.997,15.804-18.997,28.402c0,6.596,5.365,11.961,11.961,11.961    h36.079c6.595,0,11.96-5.365,11.96-11.961V499.5c0-1.713-0.155-3.429-0.449-5.125l13.752-52.372h14.7V497    c0,0.337,0.03,0.667,0.073,0.992c-0.047,0.69-0.073,1.375-0.073,2.047c0,6.596,5.365,11.961,11.961,11.961h36.078    c6.596,0,11.961-5.365,11.961-11.961V499.5c0-10.822-5.858-20.665-15-25.956v-31.542h20.555c7.029,0,13.522-3.192,17.815-8.758    c4.293-5.566,5.731-12.658,3.946-19.458l-24.816-94.507v-11.244c13.525,9.275,28.225,13.983,43.699,13.983    c13.078,0,26.188-3.405,38.965-10.12c5.32-2.796,9.234-7.496,11.019-13.234C393.343,292.926,392.787,286.836,389.992,281.516z     M170.034,215.816c-5.083-7.599-8.908-15.717-11.37-24.128c-2.731-9.336-3.741-19.522-2.981-29.795    c13.778-0.737,27.498-5.962,38.602-15.553c18.449,37.173,57.256,60.419,98.741,60.419h0.051c10.254,0,20.309-1.405,30.057-4.177    c-10.193,23.088-30.149,40.603-54.688,47.919c-0.286,0.085-0.57,0.175-0.856,0.257c-12.005,3.448-25.015,4.455-38.063,2.486    C205.341,249.594,183.65,235.939,170.034,215.816z M267.588,266.261v2.451c-6.275,0.872-14.176,4.333-18.065,6.882    c-4.038,2.644-9.257,2.645-13.293,0.001c-4.238-2.776-12.912-6.948-19.446-7.086v-2.585c3.447,0.897,6.952,1.618,10.504,2.154    c5.149,0.777,10.34,1.166,15.541,1.166c5.218,0,10.445-0.392,15.643-1.175C261.56,267.603,264.597,266.988,267.588,266.261z     M173.733,360.804c-1.416,1.417-3.3,2.197-5.303,2.197s-3.887-0.78-5.304-2.197c-1.416-1.416-2.196-3.3-2.196-5.303    c0-2.003,0.78-3.887,2.197-5.303c1.671-1.672,2.474-3.889,2.263-6.219c-0.205-2.324-1.424-4.418-3.337-5.738    c-20.455-14.155-20.906-30.625-17.683-41.948c6.609-23.205,33.411-32.773,57.413-35.296v11.402    c-1.986,1.179-3.841,2.61-5.524,4.283c-0.071,0.071-0.138,0.146-0.208,0.218c-11.477,2.054-32.817,7.923-37.253,23.502    c-1.771,6.22-2.475,15.632,11.791,25.503c5.579,3.861,9.13,9.951,9.739,16.706C180.938,349.373,178.535,356.004,173.733,360.804z     M187.99,294.331c-0.072,0.829-0.114,1.663-0.114,2.505v22.444l-0.534,2.034c-2.312-2.939-5.063-5.56-8.218-7.743    c-7.083-4.902-6.427-7.209-5.899-9.063C174.298,300.738,179.896,297.026,187.99,294.331z M162.665,497    c1.351-6.932,7.158-12.243,14.15-12.49c0.001,0,0.002,0,0.003,0c0.179-0.006,0.356-0.01,0.533-0.01    c6.867,0,12.948,4.728,14.585,11.42c0.002,0.01,0.005,0.021,0.007,0.031c0.084,0.348,0.156,0.698,0.216,1.049H162.665z     M196.19,476.189c-3.964-3.194-8.727-5.386-13.864-6.259l7.334-27.927h15.507L196.19,476.189z M250.674,497.001L250.674,497.001    c1.359-6.948,7.282-12.247,14.148-12.491c1.897-0.075,3.769,0.218,5.552,0.848c0,0.001,0.001,0.001,0.001,0.001    c5.183,1.832,8.892,6.343,9.79,11.642H250.674z M250.375,473.561v-31.558h15v27.504c-0.362,0-0.724,0-1.087,0.013    C259.239,469.699,254.499,471.141,250.375,473.561z M308.184,417.597c0.595,2.268,0.115,4.632-1.315,6.487    c-1.432,1.854-3.596,2.919-5.938,2.919h-116.11c-2.343,0-4.507-1.064-5.938-2.919c-1.431-1.855-1.91-4.22-1.315-6.486    c0.176-0.67,24.926-94.905,25.089-95.579c0.513-2.101,0.22-7.961,0.22-25.183c0-3.599,1.405-6.978,3.957-9.513    c2.483-2.468,5.756-3.823,9.217-3.823c0.028,0,0.056,0,0.084,0l0.309,0.004c2.333,0.044,8.063,2.342,11.569,4.639    c9.028,5.911,20.698,5.913,29.73-0.001c3.103-2.032,10.032-4.59,12.59-4.639l0.286-0.003c0.023,0,0.047,0,0.07,0    c3.206,0,6.231,1.253,8.527,3.534c2.36,2.346,3.66,5.472,3.66,8.802v16.914h-57.5c-4.141,0-7.5,3.359-7.5,7.5    c0,4.13,3.359,7.5,7.5,7.5h59.215L308.184,417.597z M377.236,294.209c-0.596,1.913-1.899,3.479-3.674,4.412    c-10.604,5.572-21.365,8.398-31.987,8.398c-12.473,0-24.397-3.87-35.443-11.505c-3.241-2.239-6.401-4.825-9.433-7.672    c-1.298-4.283-3.645-8.203-6.91-11.448c-2.142-2.128-4.573-3.849-7.2-5.139v-9.873c1.735-0.715,3.451-1.465,5.136-2.27    c0.348,0.049,0.7,0.084,1.062,0.084c2.682,0.001,5.098,1.376,6.506,3.751c4.288,7.042,13.345,16.623,20.57,21.025    c15.736,10.324,32.803,10.784,50.722,1.369c3.662-1.923,8.206-0.51,10.129,3.149C377.645,290.267,377.831,292.297,377.236,294.209    z" data-original="#000000" class="active-path" data-old_color="#000000" fill="#FFFFFF"/>
	</g>
</g></g> </svg>
